# xmcd CD database file
#
# Track frame offsets:
#	150
#	31532
#	53639
#	73336
#	86083
#	114496
#	140272
#	162991
#	189316
#	216007
#
# Disc length: 3147 seconds
#
# Revision: 1
# Processed by: cddbd v1.4PL0 Copyright (c) Steve Scherf et al.
# Submitted via: CDex 1.50
#
DISCID=830c490a
DTITLE=Motocross - L'amour est un sentiment
DYEAR=2002
DGENRE=Jazz
TTITLE0=De la Statique
TTITLE1=Légoland
TTITLE2=Fleurs and Jardins
TTITLE3=Clinique and Tactique
TTITLE4=Sauce Blanche
TTITLE5=Duo Tex-Mex
TTITLE6=A La Plage
TTITLE7=Cerises au Sarin
TTITLE8=Le Flotteur
TTITLE9=Récepteur
EXTD=YEAR: 2002
EXTT0=
EXTT1=
EXTT2=
EXTT3=
EXTT4=
EXTT5=
EXTT6=
EXTT7=
EXTT8=
EXTT9=
PLAYORDER=
